<?xml version="1.0" encoding="utf-8"?>
<!-- Generator: Adobe Illustrator 21.1.0, SVG Export Plug-In . SVG Version: 6.00 Build 0)  -->
<svg version="1.1" id="Layer_1" xmlns="http://www.w3.org/2000/svg" xmlns:xlink="http://www.w3.org/1999/xlink" x="0px" y="0px"
	 viewBox="0 0 100 100" style="enable-background:new 0 0 100 100;" xml:space="preserve">
<style type="text/css">
	.st0{fill:none;stroke:#231F20;stroke-width:4;stroke-miterlimit:10;}
	.st1{fill:#231F20;}
</style>
<path class="st0" d="M41.1,3C22.4,3,7.2,18.2,7.2,36.9s15.2,33.9,33.9,33.9c3.6,0,7-0.6,10.3-1.6c5.9-1.8,11-5.3,15-9.7
	c5.4-6,8.6-13.9,8.6-22.6C75,18.2,59.8,3,41.1,3z M44.1,52.9c-0.9,0.2-2,0.3-3,0.3c-8.9,0-16.2-7.2-16.2-16.2c0-3.3,0.9-6.4,2.6-8.9
	c2.2-3.4,5.8-5.9,9.9-6.9c1.1-0.3,2.4-0.4,3.6-0.4c8.9,0,16.2,7.2,16.2,16.2c0,3.5-1.1,6.8-3,9.4C51.9,49.7,48.2,52,44.1,52.9z"/>
<path class="st1" d="M86.3,89.5l-14.9,9.9l-20-30.1c5.9-1.8,11-5.3,15-9.7L86.3,89.5z"/>
</svg>
